PathFileType	4	(X/Y/Z)	s07c0402.trc
DataRate	CameraRate	NumFrames	NumMarkers	Units	OrigDataRate	OrigDataStartFrame	OrigNumFrames
200	200	4	48	mm	200	250	2000
Frame#	Time	racr			lacr			c7			jug			rlel			rdr			llel			ldr			s2			lic			ric			lasi			rasi			rpsi			lpsi			rgt			lgt			rth1			rth2			rth3			rth4			rlfc			rmfc			rsh1			rsh2			rsh3			rsh4			rlmal			rcal			rtoe			rmt5			lth1			lth2			lth4			lth3			llfc			lmfc			lsh1			lsh2			lsh3			lsh4			llmal			lcal			ltoe			lmt5			SBIKE			LBIKE			RBIKE			
		X1	Y1	Z1	X2	Y2	Z2	X3	Y3	Z3	X4	Y4	Z4	X5	Y5	Z5	X6	Y6	Z6	X7	Y7	Z7	X8	Y8	Z8	X9	Y9	Z9	X10	Y10	Z10	X11	Y11	Z11	X12	Y12	Z12	X13	Y13	Z13	X14	Y14	Z14	X15	Y15	Z15	X16	Y16	Z16	X17	Y17	Z17	X18	Y18	Z18	X19	Y19	Z19	X20	Y20	Z20	X21	Y21	Z21	X22	Y22	Z22	X23	Y23	Z23	X24	Y24	Z24	X25	Y25	Z25	X26	Y26	Z26	X27	Y27	Z27	X28	Y28	Z28	X29	Y29	Z29	X30	Y30	Z30	X31	Y31	Z31	X32	Y32	Z32	X33	Y33	Z33	X34	Y34	Z34	X35	Y35	Z35	X36	Y36	Z36	X37	Y37	Z37	X38	Y38	Z38	X39	Y39	Z39	X40	Y40	Z40	X41	Y41	Z41	X42	Y42	Z42	X43	Y43	Z43	X44	Y44	Z44	X45	Y45	Z45	X46	Y46	Z46	X47	Y47	Z47	X48	Y48	Z48	
250	1.2500	422.793198	1466.587874	-102.753789	408.420040	1455.355711	-386.380178	392.084838	1496.643840	-249.044307	365.367686	1354.817100	-243.425015	490.116911	1149.385030	22.705859	689.103055	934.855846	-58.902284	500.529231	1154.535716	-501.134675	688.561916	926.114115	-446.527857	-143.591532	1201.166990	-251.667341	17.060852	1255.662149	-393.757212	23.267080	1248.322995	-100.608723	52.197984	1176.899908	-367.293116	38.127255	1191.623740	-119.564676	-119.783282	1240.773640	-199.174605	-104.777758	1249.971767	-307.285301	-32.440883	1123.402982	-55.124807	-37.897887	1094.449329	-420.388296	106.899196	1068.205099	-46.952559	193.498150	1055.358590	-54.316677	262.856700	1005.982276	-48.777909	205.469164	1085.656822	-72.378560	385.272830	927.808756	-79.489972	385.382128	916.116383	-185.340933	335.826908	792.744072	-61.102735	322.144786	706.518767	-83.997727	271.294507	636.696250	-81.757325	338.475674	705.801245	-119.989549	211.990818	515.360668	-87.647498	142.252624	480.151256	-116.883083	428.886606	435.662703	-130.533772	350.254471	408.405902	-60.357099	21.357870	986.779598	-427.713863	89.406292	930.850852	-432.973146	119.158070	951.481084	-426.306178	120.694949	847.492408	-428.909489	208.786285	689.921882	-398.401170	199.143622	675.130517	-300.775298	117.749121	568.931278	-416.519580	83.172914	493.270176	-393.782140	13.421845	436.781142	-401.028297	86.629578	495.607543	-352.260348	-74.422610	333.209462	-396.667285	-151.894735	304.584242	-362.231450	131.109650	243.342891	-359.573344	47.931419	230.787478	-423.535480	-264.034361	969.319523	-238.542593	-83.511350	79.029785	-437.902991	-83.648234	79.104606	-40.291371	
251	1.2550	422.746948	1466.580236	-102.711988	408.376421	1455.345959	-386.281437	392.029244	1496.673896	-249.017260	365.310862	1354.823819	-243.400093	490.153996	1149.382699	22.619436	689.117354	934.747753	-58.914500	500.601462	1154.578795	-501.026195	688.563801	926.098054	-446.510483	-143.615743	1201.137021	-251.722236	17.073958	1255.628046	-393.786124	23.202944	1248.305263	-100.636244	52.179433	1176.882565	-367.281786	38.080750	1191.574060	-119.552203	-119.828719	1240.761149	-199.190788	-104.806947	1249.950062	-307.307350	-32.499452	1123.404792	-55.126851	-37.897640	1094.432388	-420.385628	106.859885	1068.172082	-46.946119	193.468801	1055.329406	-54.329811	262.823427	1005.958732	-48.788613	205.424665	1085.624884	-72.386235	385.237961	927.811632	-79.501424	385.336569	916.105616	-185.373935	335.756234	792.740380	-61.117891	322.122347	706.512086	-83.994488	271.246178	636.683477	-81.765091	338.438783	705.797501	-119.985516	211.968998	515.352951	-87.662336	142.223840	480.137549	-116.880510	428.876343	435.675946	-130.530804	350.240692	408.415256	-60.340323	21.363281	986.765573	-427.718730	89.405634	930.859514	-432.991872	119.145073	951.481200	-426.337242	120.693256	847.492232	-428.896669	208.788655	689.925184	-398.376153	199.154539	675.166321	-300.753227	117.742658	568.951913	-416.525139	83.149358	493.279218	-393.796505	13.417753	436.807861	-401.020650	86.607829	495.603822	-352.241896	-74.413894	333.218920	-396.652238	-151.897359	304.603757	-362.242192	131.108832	243.355994	-359.578406	47.929322	230.782393	-423.534263	-264.046558	969.302354	-238.538243	-83.519545	79.041741	-437.918139	-83.603745	78.960347	-40.364679	
252	1.2600	422.662234	1466.599186	-102.660305	406.841775	1454.235966	-381.836391	391.947113	1496.720547	-248.966509	365.270936	1354.848618	-243.361711	490.222396	1149.395331	22.540036	689.091804	934.701575	-58.930128	500.686643	1154.623387	-500.864202	688.564318	926.072970	-446.455542	-143.650618	1201.123534	-251.752434	17.052839	1255.629145	-393.798255	23.155503	1248.305022	-100.648081	52.153642	1176.826833	-367.264268	38.025170	1191.541999	-119.523496	-119.865135	1240.739758	-199.230221	-104.827835	1249.924737	-307.337381	-32.523110	1123.379557	-55.135659	-37.898973	1094.417508	-420.384387	106.830280	1068.130954	-46.945242	193.440213	1055.307729	-54.324632	262.784173	1005.933105	-48.793878	205.380995	1085.577598	-72.390733	385.198713	927.786463	-79.497583	384.882804	916.231091	-186.239993	335.713851	792.732147	-61.117221	322.094131	706.494194	-84.007533	271.228134	636.661780	-81.774078	338.436603	705.791767	-119.979118	211.967594	515.308602	-87.653923	142.217767	480.090090	-116.880898	428.885045	435.671758	-130.537620	350.217577	408.414546	-60.353343	21.365546	986.755797	-427.707560	89.410761	930.841250	-432.987290	119.165445	951.484007	-426.343452	120.707385	847.498692	-428.891514	208.803213	689.924210	-398.357654	199.135197	675.153226	-300.732280	117.735097	568.957321	-416.509251	83.142666	493.278747	-393.770440	13.387909	436.814649	-401.025391	86.585619	495.609388	-352.219347	-74.445817	333.221392	-396.658335	-151.912873	304.601308	-362.233872	131.081390	243.372044	-359.577085	47.922398	230.794560	-423.533716	-264.041561	969.315034	-238.545934	-83.508443	79.023966	-437.898954	-83.638942	79.084479	-40.320411	
253	1.2650	422.601956	1466.630298	-102.637629	406.798009	1454.307997	-381.847681	391.891833	1496.762029	-248.944359	365.249648	1354.875953	-243.338160	490.299972	1149.437563	22.454348	689.094740	934.663242	-58.936510	500.497239	1154.316829	-499.966810	688.580402	926.073007	-446.439643	-143.689775	1201.096419	-251.766244	17.022552	1255.621459	-393.785628	23.091364	1248.287290	-100.675594	52.154409	1176.815932	-367.267927	37.991991	1191.510380	-119.511655	-120.095898	1240.859244	-199.098255	-104.846011	1249.893266	-307.395876	-32.558760	1123.366794	-55.166793	-37.896256	1094.412874	-420.396078	106.797053	1068.111632	-46.936530	193.405647	1055.286457	-54.315687	262.785967	1005.907666	-48.816978	205.339816	1085.555563	-72.384734	385.209516	927.799095	-79.497789	384.857241	916.232197	-186.239242	335.697667	792.724267	-61.129980	322.100130	706.496204	-83.983620	271.232445	636.636491	-81.782247	338.422158	705.756032	-119.988148	211.989973	515.284881	-87.670066	142.243525	480.056245	-116.877967	428.903398	435.634322	-130.536692	350.243678	408.382694	-60.340270	21.376611	986.745055	-427.695373	89.426563	930.837750	-432.983286	119.165849	951.471957	-426.346055	120.712194	847.488326	-428.866159	208.802958	689.884598	-398.284575	199.148510	675.151518	-300.683381	117.714180	568.959171	-416.489098	83.102189	493.330203	-393.803588	13.358337	436.823498	-401.004243	86.581833	495.607627	-352.212365	-74.493988	333.246479	-396.655159	-151.973512	304.602504	-362.242390	131.066546	243.406122	-359.584221	47.895126	230.818902	-423.542433	-264.052655	969.311345	-238.548529	-83.505779	79.057029	-437.924422	-83.651849	79.090206	-40.303900	
